<?xml version="1.0" standalone="no"?>
<!DOCTYPE svg PUBLIC "-//W3C//DTD SVG 20010904//EN"
 "http://www.w3.org/TR/2001/REC-SVG-20010904/DTD/svg10.dtd">
<svg version="1.0" xmlns="http://www.w3.org/2000/svg"
 width="237.000000pt" height="127.000000pt" viewBox="0 0 237.000000 127.000000"
 preserveAspectRatio="xMidYMid meet">

<g transform="translate(0.000000,127.000000) scale(0.100000,-0.100000)"
fill="#000000" stroke="none">
<path d="M0 635 l0 -635 1185 0 1185 0 0 635 0 635 -1185 0 -1185 0 0 -635z
m947 485 c15 -12 20 -20 12 -20 -11 0 -11 -2 1 -10 13 -9 13 -10 0 -10 -13 0
-13 -1 0 -10 9 -6 10 -10 3 -10 -7 0 -10 -9 -8 -20 2 -13 -2 -23 -11 -27 -13
-5 -13 -7 -2 -14 7 -5 9 -9 3 -9 -5 0 -23 9 -40 20 -16 11 -24 20 -17 20 7 0
10 5 7 10 -3 6 1 13 10 16 13 6 14 8 3 15 -8 5 -9 9 -2 9 7 0 10 13 9 30 -3
35 -1 36 32 10z m1318 -75 c1 -30 -4 -49 -12 -52 -7 -3 -11 -9 -8 -13 3 -4 -8
-22 -25 -40 -24 -26 -32 -29 -49 -21 -20 11 -22 42 -3 49 7 2 10 8 7 12 -3 5
4 14 15 20 11 6 18 15 15 21 -4 5 1 12 10 15 13 6 14 8 3 15 -8 5 -9 9 -2 9 7
0 10 13 9 30 -2 29 -2 30 18 17 17 -11 22 -25 22 -62z m-1470 -38 c1 -43 -1
-45 -24 -44 -20 2 -25 8 -26 30 -2 27 8 36 20 17 3 -5 0 -10 -7 -10 -9 0 -9
-3 2 -10 12 -8 12 -10 1 -10 -8 0 -12 -3 -8 -6 3 -3 14 -1 24 5 14 8 14 10 3
11 -13 0 -13 1 0 10 13 9 13 10 0 10 -12 0 -12 2 -2 9 11 7 10 9 -3 14 -9 4
-13 3 -10 -3 3 -6 -1 -7 -10 -3 -13 5 -14 7 -3 14 10 7 10 9 -2 9 -13 0 -13 2
0 10 26 16 44 -5 45 -53z m-7 -68 c-10 -7 -10 -9 2 -9 13 0 13 -2 1 -9 -8 -5
-21 -7 -28 -4 -12 5 -12 7 -1 14 10 7 10 9 -2 9 -13 0 -13 2 -1 9 8 5 21 7 28
4 12 -5 12 -7 1 -14z m407 1 c3 -5 2 -10 -4 -10 -5 0 -13 5 -16 10 -3 6 -2 10
4 10 5 0 13 -4 16 -10z m-843 -37 c15 -16 32 -17 22 -2 -4 8 0 8 15 0 28 -16
26 -20 -6 -17 -16 1 -46 -8 -69 -21 -36 -20 -43 -21 -60 -9 -18 14 -18 15 -2
21 10 4 16 11 13 15 -15 24 65 34 87 13z m453 -24 c2 -22 -3 -26 -23 -26 l-25
0 24 13 c15 8 18 13 9 14 -13 0 -13 1 0 10 17 11 9 13 -15 4 -13 -6 -14 -9 -3
-16 11 -8 10 -9 -1 -6 -8 2 -15 11 -17 20 -1 12 5 16 24 15 20 -2 26 -8 27
-28z m905 16 c7 -8 9 -15 4 -15 -4 0 1 -6 11 -14 18 -13 17 -13 -9 -13 -20 0
-24 2 -15 8 12 7 11 9 -1 10 -11 0 -12 2 -2 6 10 4 9 8 -5 19 -10 7 -13 14 -7
14 6 0 17 -7 24 -15z m479 -2 l-24 -14 25 6 25 6 -25 -16 c-24 -15 -24 -16 -2
-10 20 6 22 4 18 -19 -3 -16 0 -26 7 -26 7 0 6 -4 -3 -10 -13 -9 -13 -10 0
-10 13 0 13 -1 0 -10 -13 -9 -13 -10 0 -10 9 0 11 -3 5 -8 -5 -4 -11 -36 -12
-71 -2 -36 -6 -68 -11 -73 -4 -4 -21 1 -37 12 -17 11 -23 20 -15 20 13 0 13 1
0 10 -8 5 -10 10 -4 10 6 0 11 10 10 23 -1 27 26 30 30 4 2 -14 -2 -17 -14
-13 -13 5 -12 2 2 -9 15 -11 16 -15 5 -16 -11 0 -11 -2 0 -6 10 -4 10 -7 1
-13 -9 -5 -8 -9 3 -13 10 -4 13 2 12 21 -1 15 3 30 9 34 7 5 6 8 -4 8 -13 0
-13 1 0 10 13 9 13 10 0 10 -12 0 -12 2 -2 9 11 7 10 9 -3 14 -9 4 -13 3 -10
-3 3 -6 -1 -7 -10 -3 -13 5 -14 7 -3 14 10 7 10 9 -2 9 -13 0 -13 1 0 10 13 9
13 10 0 10 -13 0 -13 1 0 10 13 9 13 10 0 10 -13 0 -13 1 0 10 13 9 13 10 0
10 -9 0 -11 3 -4 8 5 4 10 23 9 43 -1 33 1 37 24 37 l24 0 -24 -15z m-235 -24
c-3 -6 2 -9 11 -7 22 4 29 -31 8 -39 -12 -5 -12 -7 -1 -14 10 -7 10 -9 -2 -9
-13 0 -13 -1 0 -10 13 -9 13 -10 0 -10 -13 0 -13 -1 0 -10 13 -9 13 -10 0 -10
-13 0 -13 -1 0 -10 13 -9 13 -10 0 -10 -13 0 -13 -1 0 -11 12 -8 10 -9 -9 -4
-18 6 -22 4 -16 -6 6 -11 5 -12 -6 -1 -16 14 -33 16 -24 2 3 -6 -1 -7 -10 -3
-9 3 -12 9 -7 12 5 3 8 14 6 24 -1 10 4 21 13 24 12 5 12 7 1 14 -9 6 -9 9 -1
9 7 0 10 9 8 20 -2 13 2 23 11 27 13 5 13 7 2 14 -10 7 -11 9 0 9 7 0 10 5 6
12 -4 7 -3 8 5 4 6 -4 9 -12 5 -17z m-550 -35 c-1 -5 6 -14 15 -21 9 -7 12
-13 7 -13 -5 0 -3 -7 4 -15 7 -8 9 -15 4 -15 -5 0 -2 -5 6 -10 13 -8 13 -10 1
-10 -11 0 -9 -4 5 -15 19 -15 19 -15 -1 -9 l-20 6 20 -17 c11 -9 21 -20 21
-25 1 -6 3 -13 4 -17 1 -5 2 -11 1 -15 0 -5 5 -8 12 -8 8 0 7 -4 -3 -10 -13
-9 -13 -10 0 -10 13 0 13 -2 1 -9 -8 -5 -21 -7 -30 -4 -13 4 -13 3 -2 -5 8 -6
21 -8 30 -5 10 3 12 2 5 -4 -5 -4 -10 -25 -9 -46 1 -24 -4 -41 -12 -44 -7 -3
-10 -9 -7 -14 3 -5 -3 -6 -12 -2 -10 4 -15 2 -11 -4 3 -5 1 -10 -6 -11 -34 -4
-67 -11 -75 -15 -4 -3 -21 3 -37 13 -27 18 -27 19 -7 20 12 0 31 0 42 1 11 0
18 4 15 9 -4 6 2 7 11 3 12 -4 15 -3 10 6 -4 6 -4 11 1 10 20 -3 34 2 28 11
-4 6 1 7 11 3 11 -4 15 -3 10 5 -3 6 -2 13 3 16 9 6 10 23 0 41 -3 6 -5 17 -4
25 0 8 -4 18 -10 22 -6 5 -4 8 5 8 13 0 13 1 0 10 -12 8 -12 10 -1 10 11 0 11
3 1 15 -7 8 -9 15 -4 15 5 0 2 5 -6 10 -13 9 -13 10 0 10 13 0 13 1 0 10 -13
8 -13 10 -1 10 11 0 9 4 -5 15 -14 10 -15 14 -5 15 11 0 9 4 -5 15 -10 8 -15
15 -10 15 5 0 3 7 -4 15 -7 8 -9 15 -4 15 4 0 -1 7 -12 16 -18 15 -17 15 6 1
14 -8 25 -18 24 -23z m-603 -2 c-11 -4 -11 -6 0 -13 7 -4 14 -23 14 -42 1 -27
-2 -34 -14 -30 -11 3 -10 0 3 -11 15 -12 16 -16 5 -16 -12 0 -12 -2 1 -10 8
-5 10 -10 4 -10 -6 0 -10 -17 -9 -40 1 -23 -3 -43 -8 -47 -6 -3 -7 -1 -3 5 4
7 1 12 -6 12 -9 0 -9 3 2 10 13 9 13 10 0 10 -12 0 -12 2 -1 9 9 6 10 11 2 15
-6 4 -9 12 -6 17 4 5 0 9 -7 9 -9 0 -9 3 2 10 13 9 13 10 0 10 -13 0 -13 1 0
10 13 9 13 10 0 10 -13 0 -13 1 0 10 13 9 13 10 0 10 -13 0 -13 1 0 10 12 8
12 10 -4 16 -14 5 -15 9 -4 15 10 7 10 9 -2 9 -13 0 -13 1 0 10 13 9 13 10 0
10 -13 0 -13 2 -1 9 8 5 21 6 30 3 11 -4 12 -7 2 -10z m937 -16 c-8 -6 -14
-19 -12 -28 1 -10 -5 -22 -14 -28 -14 -8 -14 -9 -2 -10 12 0 12 -2 2 -9 -8 -4
-14 -12 -14 -17 1 -5 -7 -8 -16 -6 -14 2 -14 0 2 -13 14 -11 16 -15 5 -15 -12
0 -12 -2 1 -10 10 -6 11 -10 3 -10 -7 0 -12 -6 -10 -12 1 -8 -6 -12 -18 -10
-20 3 -20 2 -1 -13 11 -8 14 -15 7 -15 -7 0 -9 -5 -5 -11 3 -6 -5 -4 -19 6
-26 17 -29 44 -7 69 5 7 7 16 3 19 -3 4 2 10 11 13 14 5 15 9 4 15 -9 6 -9 9
-1 9 7 0 10 9 8 20 -2 12 2 23 10 26 7 3 12 14 10 25 -5 25 23 41 49 27 17 -9
18 -12 4 -22z m-1459 7 l-24 -14 25 6 c22 5 23 5 7 -5 -20 -13 -30 -8 -33 14
-1 8 8 14 24 14 l25 0 -24 -15z m762 -41 c-11 -4 -11 -6 0 -13 12 -7 11 -9 -1
-9 -13 0 -13 -2 -1 -9 18 -12 24 -44 7 -38 -7 3 -18 2 -25 -3 -10 -5 -9 -9 4
-13 9 -4 13 -3 10 3 -3 6 1 7 10 3 13 -5 14 -7 3 -14 -10 -7 -10 -9 2 -9 9 0
11 -3 4 -8 -5 -4 -10 -29 -9 -55 1 -42 -2 -50 -24 -62 -15 -8 -20 -14 -11 -15
13 0 13 -1 0 -10 -13 -9 -13 -10 0 -10 13 0 13 -1 0 -11 -13 -9 -13 -10 0 -6
8 2 14 14 14 25 -1 12 3 22 8 22 5 0 7 -14 5 -32 -3 -33 -13 -37 -84 -39 -18
-1 -31 -5 -28 -9 2 -4 -9 -6 -26 -4 -18 2 -28 0 -24 -6 4 -6 -1 -13 -10 -16
-13 -5 -14 -9 -4 -15 7 -4 14 -15 15 -24 2 -15 0 -15 -19 -2 -12 8 -20 18 -19
22 2 4 -2 12 -10 16 -10 7 -10 9 2 9 13 0 13 1 0 10 -13 9 -13 10 0 10 13 0
13 1 0 11 -12 8 -10 9 9 4 13 -4 21 -3 18 2 -3 5 6 10 21 11 35 2 62 7 88 15
17 6 21 15 19 48 -1 28 3 43 12 46 11 4 11 8 3 13 -8 5 -7 9 5 13 9 4 13 3 10
-3 -3 -6 1 -7 10 -3 22 8 -1 23 -24 16 -10 -3 -12 -2 -5 4 5 4 10 25 9 46 -1
22 4 41 11 44 6 2 10 17 9 33 -2 22 1 27 13 22 12 -4 13 -7 3 -10z m-601 -148
c0 -2 -3 -3 -7 -3 -31 5 -37 -10 -18 -40 5 -8 -6 -5 -23 8 -18 12 -30 27 -27
32 4 5 0 9 -7 10 -10 0 -10 2 0 6 6 2 9 10 6 16 -5 8 -2 8 7 0 20 -19 34 -16
18 4 -9 11 -3 10 19 -6 17 -12 32 -24 32 -27z m785 7 c-3 -5 -1 -12 4 -15 5
-4 8 -14 7 -24 -2 -9 2 -20 8 -24 8 -5 7 -8 -2 -8 -7 0 -10 -5 -7 -10 3 -6 -1
-13 -9 -16 -9 -3 -14 -10 -11 -15 3 -4 -3 -12 -13 -18 -13 -7 -26 -5 -45 8
l-27 18 25 13 c13 7 22 17 19 22 -3 4 2 11 10 14 9 3 14 10 11 14 -3 5 3 13
12 19 10 6 14 11 10 11 -9 0 1 20 9 20 3 0 3 -4 -1 -9z m701 -88 c-2 -9 -8
-19 -14 -21 -7 -2 -10 -8 -7 -12 3 -5 -3 -13 -13 -19 -15 -8 -18 -6 -18 14 0
16 4 21 16 17 13 -5 13 -4 0 13 -8 10 -10 16 -5 13 6 -4 17 -3 25 3 19 11 19
12 16 -8z m311 2 c22 -15 25 -46 6 -52 -6 -2 -15 1 -19 8 -5 9 -2 10 12 5 14
-5 16 -4 7 4 -8 9 -16 9 -30 1 -14 -8 -14 -11 -3 -11 13 0 13 -1 0 -11 -13 -9
-13 -10 0 -8 8 1 22 1 30 0 12 -1 11 -4 -3 -12 -9 -6 -15 -14 -12 -19 9 -15
-35 -34 -48 -21 -14 14 -30 14 -22 1 3 -6 -1 -13 -9 -16 -9 -3 -14 -10 -11
-14 3 -5 -4 -15 -15 -23 -11 -7 -17 -16 -14 -20 3 -3 -4 -10 -15 -17 -12 -6
-19 -15 -16 -20 4 -6 -1 -7 -11 -3 -11 4 -15 3 -10 -5 3 -6 -2 -15 -11 -21
-20 -11 -21 -20 -1 -32 9 -6 9 -9 1 -9 -6 0 -10 -9 -8 -20 4 -22 -21 -40 -44
-32 -8 3 -11 0 -7 -7 5 -7 1 -9 -9 -4 -13 5 -14 7 -3 14 10 7 10 9 -2 9 -10 0
-11 3 -4 8 6 4 10 15 8 25 -1 10 3 20 11 23 7 3 11 18 10 35 -2 19 3 33 11 36
8 3 12 9 9 13 -3 5 8 17 24 26 17 10 28 21 25 25 -2 4 2 11 10 16 8 4 16 13
18 18 2 6 5 9 8 8 3 -1 14 -5 24 -9 13 -5 17 -4 12 4 -3 6 3 17 14 25 11 7 17
17 14 20 -4 4 1 9 10 13 9 3 14 10 11 14 -3 5 4 15 16 23 15 11 17 16 7 20 -7
3 -8 6 -3 6 6 1 20 -6 32 -14z m-1626 -54 c-10 -7 -11 -9 -1 -13 15 -5 23 -38
9 -38 -5 0 -8 -6 -6 -12 1 -8 -6 -12 -17 -10 -10 2 -15 -1 -12 -7 4 -5 1 -13
-5 -17 -19 -11 -93 -13 -106 -2 -7 5 -16 7 -21 4 -5 -3 -17 0 -26 7 -16 12 -7
14 106 18 10 0 17 3 16 7 -3 10 55 72 67 72 5 0 4 -4 -4 -9z m1069 -31 c-13
-9 -13 -10 0 -10 13 0 13 -1 0 -10 -13 -9 -13 -10 0 -10 13 0 13 -1 0 -10 -12
-8 -12 -10 -1 -10 24 0 4 -12 -26 -16 -33 -3 -71 15 -54 26 7 4 26 6 43 4 24
-3 28 -1 19 9 -11 14 3 37 24 37 5 0 3 -5 -5 -10z m-555 -164 c1 -31 -3 -62
-7 -69 -4 -6 -8 -8 -8 -3 0 4 -12 1 -26 -9 -19 -12 -29 -14 -37 -6 -18 18 -31
13 -16 -6 7 -10 10 -15 5 -11 -5 4 -18 2 -29 -4 -12 -6 -37 -12 -56 -14 -20
-1 -57 -5 -82 -7 -32 -3 -53 1 -68 12 -21 16 -21 16 14 19 19 1 51 3 70 4 19
2 35 5 35 9 0 6 17 9 67 10 18 1 30 5 27 10 -3 5 3 6 12 2 13 -5 15 -3 9 8 -4
8 -5 11 0 7 4 -4 17 -3 27 3 15 8 23 8 32 -2 8 -9 7 -11 -5 -6 -9 3 -22 1 -30
-4 -9 -6 -3 -8 19 -5 33 4 57 16 31 16 -12 0 -11 2 1 11 13 9 13 10 -1 6 -9
-3 -22 -1 -30 4 -8 5 -9 9 -3 9 6 0 10 20 9 50 -1 48 -1 50 19 36 17 -11 21
-24 21 -70z m957 -166 c18 -11 27 -20 20 -20 -7 0 -10 -4 -7 -10 4 -6 -1 -7
-11 -3 -11 4 -15 3 -11 -4 9 -14 -59 -58 -85 -56 -12 1 -16 -3 -12 -10 5 -8 3
-8 -7 0 -16 16 -33 17 -23 2 5 -8 1 -8 -14 0 -12 6 -24 17 -28 24 -5 9 -4 9 7
-1 16 -14 33 -16 24 -2 -3 6 1 7 10 4 10 -4 15 -2 13 7 -2 9 4 13 16 11 10 -2
15 1 12 6 -3 6 9 19 27 31 17 11 28 21 24 21 -8 0 0 20 8 20 3 0 19 -9 37 -20z"/>
<path d="M930 1111 c9 -7 10 -11 3 -11 -7 0 -10 -9 -8 -20 2 -13 -2 -23 -11
-27 -13 -5 -13 -7 -2 -14 10 -7 10 -9 -2 -9 -13 0 -13 -2 -1 -9 8 -5 21 -7 28
-4 12 5 12 7 1 14 -10 7 -10 9 2 9 13 0 13 1 0 10 -13 9 -13 10 0 10 13 0 13
1 0 10 -8 5 -10 10 -3 10 16 0 9 33 -8 38 -11 3 -11 1 1 -7z"/>
<path d="M2240 1091 c13 -10 13 -11 0 -11 -13 0 -13 -1 0 -10 13 -9 13 -10 0
-10 -12 0 -13 -2 -1 -9 11 -7 9 -10 -9 -16 -14 -5 -18 -10 -11 -14 7 -5 3 -12
-14 -21 -23 -12 -23 -14 -7 -27 13 -11 14 -13 2 -12 -8 1 -22 1 -30 0 -13 -1
-13 -2 0 -11 13 -9 13 -10 0 -10 -13 0 -13 -2 -1 -9 17 -11 55 5 46 18 -3 5 2
12 11 15 8 3 12 10 9 16 -3 6 1 13 10 16 14 6 14 8 -2 21 -14 11 -15 14 -2 10
12 -4 15 3 14 31 0 22 -6 37 -15 40 -13 3 -13 2 0 -7z m-14 -96 c-13 -10 -15
-15 -6 -15 7 0 11 -3 7 -6 -3 -3 -11 -3 -18 2 -9 5 -7 11 6 21 11 7 21 13 24
13 3 0 -3 -7 -13 -15z m-16 -50 c0 -2 -6 -5 -13 -8 -8 -3 -14 1 -14 8 0 7 6
11 14 8 7 -3 13 -6 13 -8z"/>
<path d="M767 1049 c7 -7 15 -10 18 -7 3 3 -2 9 -12 12 -14 6 -15 5 -6 -5z"/>
<path d="M297 897 c4 -6 -1 -8 -11 -4 -9 4 -15 3 -11 -2 3 -6 -2 -14 -11 -19
-14 -8 -14 -10 -1 -15 8 -3 32 5 53 19 22 13 35 24 29 25 -5 0 -20 2 -32 3
-13 2 -19 -2 -16 -7z m33 -2 c0 -2 -13 -11 -30 -20 -38 -19 -40 -11 -2 9 31
17 32 18 32 11z"/>
<path d="M2180 850 c-13 -9 -13 -10 0 -10 13 0 13 -1 0 -10 -13 -9 -13 -10 0
-10 13 0 13 -1 0 -10 -13 -9 -13 -10 0 -10 9 0 11 -3 5 -8 -16 -10 -12 -35 5
-39 13 -4 13 -3 0 6 -8 6 -10 11 -5 11 6 0 11 20 11 45 0 25 -1 45 -1 45 0 0
-7 -5 -15 -10z"/>
<path d="M1940 840 c-10 -6 -9 -9 1 -13 11 -4 11 -6 -1 -6 -13 -1 -13 -2 0
-11 11 -7 11 -10 2 -10 -7 0 -10 -5 -7 -10 3 -6 -1 -13 -10 -16 -13 -6 -14 -8
-3 -15 10 -7 10 -9 -2 -9 -13 0 -13 -2 -1 -9 8 -5 21 -7 28 -4 12 5 12 7 1 14
-10 7 -10 9 2 9 13 0 13 1 0 10 -9 6 -10 10 -3 10 6 0 10 9 8 20 -2 11 3 24
12 28 13 8 13 10 1 15 -8 3 -21 2 -28 -3z"/>
<path d="M1437 699 c7 -7 15 -10 18 -7 3 3 -2 9 -12 12 -14 6 -15 5 -6 -5z"/>
<path d="M1449 672 c11 -8 11 -10 0 -15 -11 -4 -11 -6 1 -6 12 -1 12 -3 2 -10
-11 -7 -11 -9 1 -14 10 -4 13 2 12 21 0 14 -7 27 -15 30 -12 3 -13 2 -1 -6z"/>
<path d="M1449 563 c-1 -5 -1 -11 0 -15 0 -4 -13 -15 -29 -23 -17 -9 -28 -20
-25 -25 3 -6 -7 -8 -24 -6 -16 2 -35 -1 -43 -5 -10 -7 -10 -9 2 -10 8 -1 20 0
25 1 6 1 19 3 30 4 26 4 95 46 75 46 -13 0 -13 1 0 10 13 9 13 10 0 10 -13 0
-13 1 0 10 10 6 11 10 3 10 -7 0 -14 -3 -14 -7z m-24 -53 c-3 -5 -12 -10 -18
-10 -7 0 -6 4 3 10 19 12 23 12 15 0z"/>
<path d="M784 802 c2 -9 8 -17 15 -18 8 -2 8 -1 0 3 -8 4 -8 7 1 13 9 5 8 9
-3 13 -10 4 -14 0 -13 -11z"/>
<path d="M1699 829 c-12 -7 -12 -9 1 -9 12 0 12 -2 2 -9 -11 -7 -10 -9 3 -14
9 -4 13 -3 10 2 -3 6 2 14 11 19 14 8 14 10 2 15 -8 3 -21 1 -29 -4z"/>
<path d="M1679 779 c-12 -7 -12 -9 1 -9 13 0 13 -1 0 -10 -13 -9 -13 -10 0
-10 12 0 12 -2 2 -9 -11 -7 -11 -9 1 -14 11 -4 15 0 12 13 -2 11 3 24 12 28
13 8 13 10 1 15 -8 3 -21 1 -29 -4z"/>
<path d="M1658 702 c11 -7 11 -10 -3 -16 -9 -3 -14 -10 -11 -15 4 -5 0 -11 -6
-14 -7 -2 -1 -4 13 -3 21 1 25 6 24 25 0 14 -7 26 -15 29 -12 3 -12 2 -2 -6z"/>
<path d="M1630 636 c0 -2 7 -7 16 -10 8 -3 12 -2 9 4 -6 10 -25 14 -25 6z"/>
<path d="M1020 730 c-8 -5 -10 -10 -5 -10 6 0 17 5 25 10 8 5 11 10 5 10 -5 0
-17 -5 -25 -10z"/>
<path d="M1019 682 c11 -8 11 -10 0 -14 -10 -3 -9 -6 3 -10 11 -5 15 -2 14 10
-2 9 -9 18 -17 20 -12 3 -12 2 0 -6z"/>
<path d="M1007 606 c-14 -11 -15 -15 -4 -19 8 -3 20 -1 28 4 12 7 12 9 -1 9
-13 0 -13 1 0 10 8 5 11 10 5 10 -5 -1 -18 -7 -28 -14z"/>
<path d="M993 564 c0 -10 5 -10 21 -2 29 15 30 16 3 16 -13 0 -24 -6 -24 -14z"/>
<path d="M977 509 c-17 -10 -50 -18 -87 -21 -8 0 -22 -6 -30 -12 -20 -15 -24
-37 -5 -30 8 3 13 11 12 17 -2 11 11 14 83 22 19 2 38 4 41 4 3 1 6 8 6 16 0
8 -1 15 -1 15 -1 0 -9 -5 -19 -11z"/>
<path d="M847 419 c7 -7 15 -10 18 -7 3 3 -2 9 -12 12 -14 6 -15 5 -6 -5z"/>
<path d="M375 631 c1 -8 7 -16 14 -17 9 -2 9 -1 0 3 -8 4 -3 11 12 18 l24 13
-26 -1 c-17 -1 -26 -7 -24 -16z"/>
<path d="M1210 610 c-8 -5 -10 -10 -5 -10 6 0 1 -7 -9 -15 -14 -11 -16 -15 -5
-15 8 -1 2 -8 -13 -16 -34 -18 -34 -20 -7 -35 17 -9 20 -8 14 2 -6 9 -3 11 9
6 10 -4 15 -3 11 3 -3 6 1 13 10 16 13 6 14 8 3 15 -10 7 -10 9 2 9 13 0 13 1
0 10 -8 5 -10 10 -4 10 6 0 11 7 11 15 0 8 -1 15 -1 15 -1 0 -8 -5 -16 -10z
m-14 -65 c-11 -8 -25 -15 -30 -15 -6 1 0 7 14 15 32 19 40 18 16 0z"/>
<path d="M2204 534 c-18 -14 -18 -15 4 -4 12 6 28 8 34 4 7 -4 8 -3 4 4 -10
16 -18 15 -42 -4z"/>
<path d="M2180 500 c-13 -9 -13 -10 0 -10 8 -1 3 -7 -12 -16 -16 -8 -28 -17
-28 -20 0 -3 5 -2 10 1 6 4 17 1 25 -5 10 -9 19 -9 32 0 16 9 15 10 -7 5 -24
-6 -24 -5 3 10 31 18 34 23 10 21 -10 0 -17 5 -15 12 2 14 1 15 -18 2z"/>
<path d="M2094 442 c3 -6 -2 -15 -11 -21 -14 -8 -15 -11 -3 -12 8 -1 22 -1 30
0 13 2 13 1 0 -8 -8 -5 -18 -7 -22 -5 -4 3 -21 -3 -37 -12 -27 -16 -28 -19
-13 -32 14 -12 15 -13 1 -9 -9 3 -22 1 -30 -4 -12 -7 -12 -9 1 -9 13 0 13 -1
0 -10 -13 -9 -13 -10 0 -10 12 0 12 -2 2 -9 -11 -7 -10 -9 3 -14 9 -4 13 -3
10 2 -3 6 3 14 12 20 14 8 15 10 3 11 -8 0 3 11 25 25 37 22 35 30 -5 26 -13
-2 -13 -1 0 8 8 5 18 8 22 5 14 -9 46 15 44 32 -1 9 -11 21 -21 26 -12 7 -16
7 -11 0z m26 -16 c0 -2 -7 -7 -16 -10 -8 -3 -12 -2 -9 4 6 10 25 14 25 6z
m-50 -70 c-7 -7 -13 -7 -20 0 -6 6 -3 10 10 10 13 0 16 -4 10 -10z"/>
<path d="M1989 269 c-12 -7 -12 -9 1 -9 13 0 13 -1 0 -10 -13 -9 -13 -10 0
-10 12 0 12 -2 2 -9 -11 -7 -11 -9 1 -14 7 -3 20 -1 28 4 12 7 12 9 -1 9 -13
0 -13 1 0 10 13 9 13 10 0 10 -12 0 -12 2 -2 9 11 7 11 9 -1 14 -7 3 -20 1
-28 -4z"/>
<path d="M593 484 c4 -4 -5 -16 -20 -26 -16 -10 -22 -18 -14 -18 41 0 -16 -18
-71 -23 -9 -1 -15 -4 -13 -8 4 -5 47 -5 98 0 4 1 6 7 5 14 -2 6 4 11 13 11 10
-1 16 5 14 15 -1 9 2 19 7 22 5 3 2 9 -8 13 -10 4 -15 4 -11 0z m7 -28 c0 -2
-7 -7 -16 -10 -8 -3 -12 -2 -9 4 6 10 25 14 25 6z"/>
<path d="M1615 420 c3 -4 16 -7 30 -7 32 0 26 8 -9 11 -14 2 -23 0 -21 -4z"/>
<path d="M1099 362 c11 -8 11 -10 0 -14 -10 -3 -9 -6 3 -10 11 -5 15 -2 14 10
-2 9 -9 18 -17 20 -12 3 -12 2 0 -6z"/>
<path d="M1094 305 c0 -16 4 -21 15 -17 11 4 12 7 2 10 -10 3 -10 6 -1 12 9 5
8 9 -2 13 -9 3 -14 -3 -14 -18z"/>
<path d="M1050 226 c7 -7 13 -7 20 0 6 6 3 10 -10 10 -13 0 -16 -4 -10 -10z"/>
<path d="M966 219 c2 -4 -4 -8 -13 -8 -10 0 -38 -3 -63 -6 -25 -3 -53 -6 -64
-6 -10 0 -15 -3 -11 -7 9 -9 84 -9 79 0 -2 3 16 5 40 4 28 -1 43 2 39 8 -4 5
0 7 9 4 8 -4 21 -2 29 3 8 5 10 9 4 10 -5 0 -20 2 -32 3 -12 1 -20 -1 -17 -5z"/>
<path d="M2047 142 c8 -5 1 -14 -22 -26 -32 -17 -33 -20 -17 -32 15 -12 14
-13 -14 -10 -19 2 -31 -2 -31 -9 0 -17 42 -10 80 14 30 19 26 27 -13 21 -8 -1
-12 1 -8 5 4 4 18 9 30 10 13 1 27 3 32 4 12 1 -25 30 -39 31 -5 0 -5 -4 2 -8z
m-7 -56 c-7 -7 -13 -7 -20 0 -6 6 -3 10 10 10 13 0 16 -4 10 -10z"/>
</g>
</svg>
